<svg version="1.1" id="Layer_1" xmlns="http://www.w3.org/2000/svg" xmlns:xlink="http://www.w3.org/1999/xlink" x="0px" y="0px"
	 width="100%" viewBox="0 0 765 765" enable-background="new 0 0 765 765" xml:space="preserve">
<title>VRATNICE</title>
<path fill="#FEFEFE" opacity="1.000000" stroke="none" 
	d="
M449.000000,766.000000 
	C299.333344,766.000000 150.166672,766.000000 1.000000,766.000000 
	C1.000000,511.000000 1.000000,256.000000 1.000000,1.000000 
	C256.000000,1.000000 511.000000,1.000000 766.000000,1.000000 
	C766.000000,256.000000 766.000000,511.000000 766.000000,766.000000 
	C660.500000,766.000000 555.000000,766.000000 449.000000,766.000000 
M363.097382,417.920746 
	C344.936401,417.616425 326.774261,417.041443 308.614929,417.119171 
	C299.182861,417.159576 290.633606,414.920502 282.416595,410.551849 
	C267.170105,402.445923 252.132355,393.870056 236.483704,386.621033 
	C222.780243,380.273010 217.821579,370.127319 217.987946,355.676422 
	C218.436874,316.682770 218.411621,277.683319 218.471954,238.685974 
	C218.479462,233.834000 217.867844,228.981064 217.526184,223.875748 
	C209.555740,227.682266 202.488113,231.308807 195.218933,234.472137 
	C183.419312,239.606903 179.105957,245.731720 179.074295,258.549042 
	C179.046707,269.715149 179.131378,280.881622 179.185211,292.047821 
	C179.331436,322.379456 179.593887,352.711121 179.579773,383.042633 
	C179.575104,393.094604 183.550125,400.091858 192.787888,404.384766 
	C203.312836,409.275787 213.738144,414.406952 224.021591,419.787628 
	C272.877167,445.350769 321.694336,470.987671 370.458710,496.724304 
	C377.983765,500.695831 384.997437,501.733459 393.007111,497.614838 
	C453.529541,466.493958 514.087646,435.439301 574.858765,404.808655 
	C584.866211,399.764587 588.938171,393.000641 588.687988,382.040588 
	C588.254517,363.054077 588.668701,344.048187 588.724976,325.050446 
	C588.797974,300.384644 588.984985,275.717865 588.787292,251.054230 
	C588.763611,248.106522 587.483643,243.704422 585.350586,242.482773 
	C574.020752,235.993820 562.232788,230.304718 550.144226,224.103012 
	C549.699646,226.457642 549.152893,228.216583 549.068298,229.997467 
	C548.697021,237.819260 548.192688,245.648285 548.218628,253.473083 
	C548.343140,290.967560 548.529663,328.462585 548.936707,365.954742 
	C549.010254,372.734558 546.766907,377.119049 540.539001,380.237518 
	C523.180725,388.929321 506.094727,398.162750 488.812286,407.008514 
	C475.674713,413.732819 461.867401,418.157928 446.903595,418.157806 
	C435.911713,418.157745 424.919830,418.220428 413.015594,418.089386 
	C396.684113,418.086578 380.352631,418.083740 363.097382,417.920746 
M372.865173,115.226120 
	C379.514679,111.247581 385.674744,112.112869 392.463226,115.754471 
	C471.705627,158.263168 551.060852,200.561584 630.399536,242.890625 
	C632.960083,244.256729 635.662598,245.356796 638.985046,246.899460 
	C638.985046,232.904388 638.745117,219.930176 639.073059,206.970337 
	C639.276367,198.937180 635.895813,194.068726 628.764832,190.546265 
	C610.308228,181.429443 592.008728,171.984024 573.794678,162.388672 
	C514.177185,130.981613 454.588226,99.520020 395.093964,67.880684 
	C387.172089,63.667793 380.311584,63.627422 372.231110,67.889397 
	C305.445282,103.114861 238.482574,138.004929 171.575180,172.999924 
	C160.405167,178.842239 149.179520,184.583282 138.116592,190.622147 
	C134.718781,192.476883 131.025452,194.467056 130.968430,199.374283 
	C130.813614,212.697250 130.531830,226.018707 130.345779,239.341400 
	C130.328720,240.563766 130.636749,241.790649 130.839981,243.375305 
	C211.630875,200.620407 291.927521,158.127075 372.865173,115.226120 
M344.122589,407.903442 
	C372.029419,407.903442 399.936218,407.903442 428.002197,407.903442 
	C428.002197,394.925079 428.000977,382.601685 428.002472,370.278320 
	C428.006287,338.785614 428.023285,307.292908 428.006195,275.800201 
	C428.002563,269.123047 426.277191,267.262695 419.621063,266.615112 
	C417.635254,266.421875 415.630005,266.370453 413.633057,266.358734 
	C391.139008,266.226654 368.644928,266.103241 346.150696,266.004211 
	C338.290894,265.969604 336.959778,267.333893 337.088409,275.297729 
	C337.386932,293.787262 337.859589,312.275055 338.005951,330.765594 
	C338.183990,353.259033 338.068695,375.754669 338.157196,398.249023 
	C338.172882,402.242737 338.069702,406.499542 344.122589,407.903442 
M417.971252,625.266174 
	C419.254974,626.176025 420.508698,627.818176 421.827454,627.872131 
	C428.422638,628.142151 435.034851,627.995728 442.161804,627.995728 
	C442.161804,611.466248 442.161804,595.467163 442.161804,578.379700 
	C444.161041,580.566406 445.462250,581.834961 446.587158,583.244324 
	C456.121338,595.189026 465.718048,607.085754 475.098114,619.150696 
	C480.391510,625.959229 486.976044,629.040344 495.521454,627.373901 
	C502.424805,626.027649 503.081299,625.215515 503.002838,618.100342 
	C502.692505,589.956360 502.334656,561.812805 501.977325,533.669373 
	C501.967377,532.888794 501.763489,532.110657 501.656494,531.375732 
	C493.302246,531.375732 485.255554,531.375732 476.895905,531.375732 
	C476.895905,547.492798 476.895905,563.232849 476.895905,580.219055 
	C466.289520,566.436462 456.016113,553.867126 446.680969,540.635864 
	C441.808929,533.730408 435.806152,530.284668 427.786469,529.488831 
	C419.928650,528.709106 417.038757,531.276978 417.040619,539.115112 
	C417.046936,565.932800 417.065552,592.750427 417.115204,619.568054 
	C417.118225,621.206726 417.431000,622.844849 417.971252,625.266174 
M214.934341,620.582581 
	C212.070755,615.529480 209.371490,610.374023 206.302887,605.448608 
	C202.281265,598.993591 202.107681,592.834167 206.452805,586.441589 
	C208.775253,583.024780 210.897797,579.406860 212.609451,575.651306 
	C221.165466,556.878662 210.939407,536.137024 190.713120,533.194946 
	C175.806488,531.026550 160.595566,530.892822 145.508759,530.060608 
	C141.777863,529.854736 138.002365,530.457153 134.232483,530.688965 
	C134.104294,532.035217 133.988007,532.687256 133.987915,533.339294 
	C133.983490,562.835876 133.981522,592.332520 134.019592,621.829041 
	C134.021271,623.128540 133.945007,624.900452 134.699554,625.626160 
	C136.171967,627.042236 138.112259,628.522034 140.030472,628.802856 
	C143.374939,629.292419 146.871536,628.634949 150.264420,628.925232 
	C156.252533,629.437500 159.222855,627.897461 160.165939,621.854980 
	C161.030334,616.316589 160.966156,610.598267 160.904205,604.963684 
	C160.868149,601.683716 162.265442,599.944092 165.153351,599.148682 
	C170.736374,597.610657 174.887772,599.531311 177.598770,604.668701 
	C180.929550,610.980652 184.145889,617.365967 187.807098,623.482849 
	C188.946259,625.386047 191.302597,627.692444 193.217911,627.803162 
	C201.454117,628.278992 209.733566,628.006348 218.747330,628.006348 
	C217.311798,625.309753 216.239914,623.296265 214.934341,620.582581 
M722.450562,529.428772 
	C716.287659,529.425842 710.124695,529.421326 703.961792,529.420532 
	C692.635498,529.419067 681.307922,529.312988 669.983398,529.454529 
	C661.436035,529.561401 659.983154,531.129822 659.989075,539.265869 
	C660.008606,565.915955 660.016113,592.566101 660.079407,619.216064 
	C660.086365,622.158630 660.423340,625.100403 660.625977,628.339966 
	C684.794067,627.801147 708.401550,627.235413 732.011414,626.797180 
	C735.048035,626.740845 735.607910,625.068298 735.708496,622.692627 
	C735.912659,617.870667 735.625305,612.964783 736.444519,608.250549 
	C737.200195,603.901306 735.633301,602.929443 731.839600,603.049194 
	C721.021912,603.390503 710.200928,603.629028 699.380554,603.881042 
	C686.208740,604.187927 686.205811,604.175842 687.143921,591.108215 
	C687.163635,590.833191 687.454895,590.577637 687.865601,589.917297 
	C697.414368,589.917297 707.213074,589.914124 717.011780,589.918030 
	C729.053711,589.922852 730.005432,588.970337 730.006653,576.875000 
	C730.007385,569.790588 728.231262,567.874878 721.266357,568.034241 
	C712.113953,568.243652 702.965271,568.873535 693.817200,568.831848 
	C691.575623,568.821655 688.110352,567.470276 687.326172,565.762634 
	C684.441101,559.480286 687.818542,554.906738 694.802490,555.042664 
	C705.954102,555.259583 717.101501,555.825867 728.251404,555.846069 
	C729.949158,555.849182 733.046143,553.795837 733.121948,552.549194 
	C733.581116,545.003723 733.350586,537.416260 733.350586,529.432434 
	C729.706543,529.432434 726.567383,529.432434 722.450562,529.428772 
M245.558105,565.020630 
	C237.782913,585.698425 230.007721,606.376221 221.874939,628.005005 
	C228.878143,628.005005 234.490936,627.989746 240.103622,628.008667 
	C248.346451,628.036438 250.866989,626.203369 253.107513,618.093140 
	C254.448990,613.237244 257.484161,610.821655 262.486755,611.017639 
	C268.301422,611.245544 274.160339,612.201721 279.912140,611.741943 
	C288.566376,611.050171 293.722229,614.333313 296.452881,622.553650 
	C297.166504,624.701843 299.800690,627.550964 301.748627,627.712219 
	C309.108093,628.321411 316.548096,627.957031 324.353088,627.957031 
	C323.933777,626.053467 323.811462,624.716553 323.347839,623.510925 
	C316.822327,606.540894 310.387543,589.533936 303.640900,572.651672 
	C299.219757,561.588623 294.402130,550.681396 289.627136,539.763306 
	C286.364014,532.302063 284.326141,531.500183 276.564392,533.372986 
	C273.367859,534.144226 270.022339,534.877380 266.778320,534.752319 
	C259.895844,534.487183 255.850555,537.883057 253.527786,543.868042 
	C250.895950,550.649414 248.427536,557.494202 245.558105,565.020630 
M588.470581,590.788086 
	C587.700378,587.568542 586.529480,584.385559 586.231689,581.122925 
	C585.132935,569.085388 588.902832,557.150146 602.972229,555.697754 
	C608.404968,555.136902 614.354919,557.122437 619.706299,558.988525 
	C624.285034,560.585266 628.345093,563.669189 634.298279,567.036377 
	C637.442383,563.342712 641.356506,559.570618 644.153931,555.099731 
	C645.496521,552.954102 646.035583,548.448486 644.710999,546.781494 
	C632.832947,531.832947 617.631775,524.947449 598.260803,528.992920 
	C566.495422,535.626892 549.926086,572.346069 562.583923,599.467163 
	C577.211548,630.808838 622.428833,639.625793 648.789185,607.024597 
	C642.766907,602.348572 636.749634,597.676453 631.670105,593.732422 
	C624.591431,596.914673 618.477661,600.360229 611.930603,602.445862 
	C601.646423,605.721985 593.386047,601.421387 588.470581,590.788086 
M82.909340,572.324158 
	C80.313927,578.938232 77.718506,585.552368 75.123093,592.166443 
	C71.930489,586.602966 70.014168,581.195312 68.066284,575.799072 
	C63.686619,563.665894 59.384262,551.503418 54.848492,539.428711 
	C53.394741,535.558716 51.691048,531.349487 46.555752,531.226318 
	C39.112221,531.047852 31.661226,531.180603 24.030636,531.180603 
	C24.103876,532.165955 23.993996,532.873169 24.222288,533.445557 
	C35.499493,561.719727 46.662933,590.040649 58.192371,618.211853 
	C61.833611,627.108887 67.420807,629.407043 77.097305,627.860168 
	C81.717812,627.121582 86.200333,628.107239 88.726387,621.762451 
	C99.743126,594.091431 111.472374,566.704285 122.876045,539.186462 
	C123.894814,536.728088 124.432625,534.070435 125.316528,531.091797 
	C117.154915,531.091797 109.831314,531.241516 102.518822,531.021545 
	C99.386467,530.927307 97.961830,531.888733 96.862564,534.946899 
	C92.450974,547.219971 87.672401,559.361206 82.909340,572.324158 
M290.278931,197.202728 
	C289.890289,194.140884 289.501617,191.079056 289.019562,187.281128 
	C284.360870,189.759415 280.571411,192.153671 276.491638,193.849716 
	C271.413422,195.960785 269.915314,199.400772 269.958618,204.759079 
	C270.276062,244.055344 270.291931,283.353943 270.471924,322.651459 
	C270.573303,344.792816 270.674164,366.936432 271.152008,389.070892 
	C271.209381,391.728516 272.965118,395.534698 275.095551,396.719849 
	C279.779236,399.325256 285.206573,400.593872 290.890442,402.606506 
	C291.269257,399.765533 291.750610,397.507263 291.842926,395.233215 
	C292.288452,384.259430 292.915466,373.282440 292.954712,362.304718 
	C293.085114,325.842102 293.254028,289.375946 292.871735,252.916763 
	C292.679993,234.632553 291.327576,216.360504 290.278931,197.202728 
M488.658875,192.838669 
	C483.660583,190.502350 478.662323,188.166016 473.492798,185.749649 
	C473.492798,258.580322 473.492798,330.587860 473.492798,403.022552 
	C478.270264,401.204010 482.507202,399.327393 486.906311,397.980377 
	C493.032288,396.104614 494.958710,391.883972 494.987885,385.912384 
	C495.283173,325.438721 495.627655,264.965240 496.077972,204.492569 
	C496.118073,199.108688 494.689270,195.077972 488.658875,192.838669 
M326.574768,529.949829 
	C325.184814,531.358765 322.680267,532.702881 322.593933,534.187622 
	C322.175140,541.390320 322.404877,548.630737 322.404877,556.003052 
	C327.836670,556.003052 332.832397,556.002563 337.828125,556.003113 
	C348.393250,556.004333 349.049622,556.394104 349.425812,566.711975 
	C350.087250,584.854309 350.523529,603.006165 350.876221,621.157471 
	C350.968323,625.898987 353.463837,627.731628 357.664612,627.947571 
	C360.988892,628.118469 364.328156,628.011230 367.660736,628.003784 
	C374.552338,627.988403 375.157959,627.528625 375.056366,620.608643 
	C374.782440,601.952637 374.326141,583.299438 374.022491,564.643738 
	C373.877106,555.711548 374.618713,555.037109 383.631165,555.007446 
	C390.205414,554.985779 396.779785,555.003174 403.669220,555.003174 
	C403.669220,550.079041 403.530670,545.927063 403.696930,541.787354 
	C404.089264,532.019958 402.788940,530.522766 392.825714,530.383423 
	C379.163361,530.192383 365.499481,530.108276 351.836151,529.992859 
	C343.689941,529.924072 335.543488,529.883118 326.574768,529.949829 
M511.014984,257.500000 
	C511.054565,295.452698 511.054962,333.405548 511.193329,371.357880 
	C511.207428,375.227783 512.050110,379.094635 512.573975,383.517334 
	C515.807434,382.606598 518.149902,381.946838 520.492371,381.287048 
	C530.296265,378.525665 532.364685,376.408173 532.430359,366.505707 
	C532.749451,318.401276 532.911804,270.295471 532.914307,222.190125 
	C532.914429,219.891235 531.468445,216.771317 529.660645,215.447327 
	C524.251160,211.485641 518.327087,208.226730 512.603882,204.693436 
	C512.073914,204.890533 511.543915,205.087646 511.013947,205.284760 
	C511.013947,222.356506 511.013947,239.428253 511.014984,257.500000 
M254.047256,366.499146 
	C254.047256,312.798676 254.047256,259.098206 254.047256,204.789627 
	C248.309128,207.827072 243.421677,210.604294 238.363022,213.023514 
	C235.125931,214.571625 234.023331,216.603714 234.034592,220.306122 
	C234.180283,268.138794 234.111511,315.972107 234.140961,363.805237 
	C234.143005,367.122833 234.237015,370.483978 234.791428,373.739166 
	C235.065292,375.347107 236.128326,377.443939 237.453629,378.139587 
	C242.666351,380.875671 248.125122,383.143036 254.048096,385.837097 
	C254.048096,379.135162 254.048096,373.316833 254.047256,366.499146 
M543.825989,602.499756 
	C543.800903,581.673096 543.865845,560.845703 543.709045,540.020020 
	C543.640259,530.881531 542.548767,530.014282 533.654663,529.986145 
	C531.491821,529.979248 529.323364,529.953247 527.167542,529.797180 
	C521.468445,529.384399 518.981384,531.665833 518.995789,537.516174 
	C519.059509,563.341614 519.125854,589.167236 519.255005,614.992371 
	C519.267456,617.473267 519.243958,620.137817 520.116943,622.373474 
	C520.830261,624.200256 522.634155,626.457520 524.347534,626.862793 
	C528.158386,627.764160 532.213318,627.820435 536.172607,627.863281 
	C541.891785,627.925049 543.396667,626.620728 543.680786,620.989868 
	C543.974365,615.172119 543.797424,609.330566 543.825989,602.499756 
M359.295837,148.851334 
	C351.831299,153.170898 344.242706,157.296051 336.979156,161.930634 
	C334.850281,163.288971 332.521667,165.956116 332.237305,168.263977 
	C331.528168,174.019653 342.086517,181.630692 347.645966,179.500992 
	C353.333679,177.322159 359.260742,175.163223 364.184631,171.713333 
	C376.836273,162.849106 389.359955,162.939713 402.414490,170.300980 
	C405.221252,171.883682 408.201050,173.159500 411.492828,174.768097 
	C412.608246,167.917648 409.254639,159.297012 421.242462,159.766983 
	C419.674927,158.323151 418.970001,157.439804 418.065582,156.876892 
	C408.633789,151.006332 399.299896,144.960159 389.661835,139.446884 
	C384.618225,136.561752 379.151001,137.013092 374.043182,140.083878 
	C369.352142,142.904114 364.623169,145.661194 359.295837,148.851334 
M359.249542,211.800720 
	C363.041473,223.075897 373.033264,230.811066 383.872406,230.862534 
	C394.602753,230.913483 405.322296,223.165009 408.385498,213.143509 
	C412.521301,199.612961 400.970703,180.669586 386.990417,178.225418 
	C385.256226,177.922226 383.312408,178.050369 381.602081,178.498764 
	C366.530548,182.450134 358.583405,193.978516 359.249542,211.800720 
M90.465881,690.918152 
	C92.959991,690.917480 95.455650,690.973328 97.947906,690.905029 
	C104.284790,690.731445 106.125626,688.514099 106.076118,681.226990 
	C106.037170,675.495117 104.987183,674.413391 98.366669,674.450623 
	C79.580673,674.556274 60.795723,674.843262 42.009747,674.960327 
	C37.608871,674.987732 35.710732,677.395264 35.264786,681.326477 
	C34.518368,687.906372 37.251671,690.887390 44.083569,690.907043 
	C59.214344,690.950500 74.345345,690.916565 90.465881,690.918152 
M736.953308,685.931946 
	C736.975464,684.105103 737.024658,682.278198 737.014587,680.451477 
	C736.984680,675.020691 735.688171,673.430908 730.422729,673.454956 
	C713.980591,673.530151 697.539124,673.777832 681.097595,673.976624 
	C677.633972,674.018494 675.655273,675.876587 674.763062,679.164185 
	C673.066467,685.416199 675.791138,689.342041 682.782349,689.499634 
	C698.889954,689.862793 715.006409,689.971802 731.117249,689.867432 
	C733.001770,689.855286 734.873352,687.855774 736.953308,685.931946 
M557.813232,677.476990 
	C555.827271,683.134949 558.143127,687.623657 562.013306,691.393982 
	C566.984863,696.237122 573.165161,697.092041 579.618652,695.352600 
	C587.248901,693.296082 593.093628,684.155396 591.364685,677.519104 
	C589.412170,670.025024 583.326538,664.462036 576.567810,663.993103 
	C568.026428,663.400513 561.501892,667.855347 557.813232,677.476990 
M285.051941,666.252075 
	C283.675781,665.685425 282.329529,665.026917 280.918488,664.567322 
	C272.860291,661.942688 266.316772,666.245483 266.081451,674.732605 
	C265.930389,680.181213 266.520599,685.661011 266.972321,691.110779 
	C267.167603,693.467041 267.851868,695.782715 268.314056,698.116821 
	C268.850555,698.128296 269.387085,698.139709 269.923584,698.151123 
	C272.047424,694.883118 274.171234,691.615112 276.285278,688.362122 
	C280.893250,692.030029 283.276794,698.689636 291.565399,697.742249 
	C290.803070,694.894714 290.702850,692.070312 289.368103,690.069580 
	C286.951172,686.446777 287.004578,683.496338 289.049255,679.656982 
	C292.385864,673.391663 291.442413,670.844055 285.051941,666.252075 
M542.467041,686.003723 
	C543.797729,689.647339 545.128418,693.290955 546.791931,697.845947 
	C548.776550,695.423584 550.660461,694.191467 550.712952,692.885681 
	C551.039001,684.775940 551.125916,676.642944 550.809570,668.536499 
	C550.765137,667.397888 548.127991,665.623962 546.601074,665.524475 
	C545.480103,665.451538 544.034363,667.510864 543.083191,668.865601 
	C542.593323,669.563293 543.008545,670.832886 542.770081,671.782654 
	C542.041809,674.683228 540.400940,676.237976 537.106201,676.151001 
	C534.019531,676.069397 533.463806,674.466431 532.827942,671.873657 
	C532.252808,669.528687 530.476624,667.478271 529.230042,665.297974 
	C528.594971,665.318787 527.959961,665.339539 527.324890,665.360352 
	C526.371399,667.975769 524.716492,670.561646 524.604492,673.212646 
	C524.338623,679.507202 524.869507,685.831726 524.944092,692.145813 
	C524.978821,695.082458 525.458252,697.743408 529.004761,697.714600 
	C532.433105,697.686707 532.989929,695.250732 533.093018,692.191589 
	C533.291626,686.293518 535.780457,684.559570 542.467041,686.003723 
M162.875458,689.441162 
	C162.875458,691.866943 162.875458,694.292725 162.875458,697.006653 
	C169.350464,697.006653 175.166946,697.196045 180.957245,696.890137 
	C182.672333,696.799500 185.407928,695.633972 185.768143,694.402893 
	C186.597183,691.569458 184.400223,690.035461 181.663925,689.363525 
	C178.542831,688.597107 175.460831,687.671448 171.748138,686.645447 
	C176.805191,684.978088 181.124725,683.553894 185.444260,682.129700 
	C185.375885,681.645752 185.307526,681.161865 185.239151,680.677917 
	C180.991409,679.070435 176.743668,677.462891 172.495926,675.855408 
	C172.604309,675.312927 172.712677,674.770508 172.821060,674.228088 
	C178.254791,673.507935 185.021011,675.724915 187.370544,668.206482 
	C183.234955,664.613098 168.842209,663.499817 164.801544,666.739807 
	C163.744797,667.587219 163.119019,669.511719 163.062027,670.971436 
	C162.834641,676.793762 162.909790,682.627869 162.875458,689.441162 
M493.055847,675.535339 
	C493.072144,680.534058 492.823090,685.554749 493.232971,690.520996 
	C493.401245,692.560181 494.469604,695.302307 496.035339,696.296326 
	C499.980988,698.801392 511.937164,696.666504 516.080078,692.866882 
	C511.873932,690.876770 507.964935,689.027283 503.617279,686.970276 
	C507.347443,685.417419 510.818939,683.972229 514.290466,682.527039 
	C514.318604,681.950867 514.346680,681.374695 514.374817,680.798584 
	C510.901550,679.243774 507.428284,677.688965 503.653534,675.999207 
	C506.238068,675.614990 509.060638,675.793152 511.248108,674.700256 
	C513.388245,673.630920 514.880981,671.265991 516.657898,669.469727 
	C515.082092,667.999817 513.601807,665.405640 511.913330,665.262146 
	C505.849976,664.746887 499.716187,665.060059 493.053619,665.060059 
	C493.053619,668.637146 493.053619,671.594849 493.055847,675.535339 
M648.744385,677.688354 
	C646.911011,677.040588 645.077698,676.392761 643.244324,675.744934 
	C646.899658,674.224854 650.695374,673.973999 654.153748,672.760986 
	C655.726685,672.209229 656.631958,669.753906 657.840088,668.161987 
	C656.153564,667.171448 654.435791,665.293579 652.786194,665.351624 
	C647.158752,665.549988 641.529907,666.274353 635.964539,667.183167 
	C634.875610,667.361023 633.305847,669.228882 633.255981,670.373779 
	C632.958801,677.192627 632.748596,684.047424 633.197205,690.844788 
	C633.315552,692.639038 635.629944,695.414185 637.338257,695.761719 
	C642.024231,696.715149 646.920593,696.738525 651.740906,696.875244 
	C653.603149,696.928101 656.925232,698.171204 656.515137,694.658691 
	C656.301941,692.832153 654.051392,690.760010 652.202576,689.727844 
	C649.782837,688.377075 646.850342,687.944885 643.223755,686.838501 
	C647.802368,684.521606 651.298096,682.752747 655.271667,680.742004 
	C652.935120,679.621948 651.193054,678.786865 648.744385,677.688354 
M405.833710,676.436218 
	C410.937866,674.695496 416.042053,672.954712 421.146240,671.213989 
	C421.243439,670.746643 421.340668,670.279297 421.437897,669.812012 
	C418.381134,668.028625 415.449982,665.047363 412.241486,664.710938 
	C405.538666,664.008118 399.741364,667.120972 396.459930,673.119873 
	C393.329681,678.842468 394.573090,684.671631 398.180634,689.974487 
	C402.028168,695.630127 407.449707,697.859253 414.124634,696.911682 
	C418.984589,696.221802 425.011749,690.655640 424.685760,686.880249 
	C424.194336,681.188721 419.205322,681.051758 415.142731,679.945007 
	C414.273254,679.708191 413.353973,679.654297 412.125519,679.464966 
	C412.338318,682.509888 412.515808,685.049622 412.693298,687.588928 
	C404.542389,687.967407 402.007629,684.129822 405.833710,676.436218 
M243.927261,697.119446 
	C253.721466,694.949646 261.629425,677.303040 256.544891,668.483704 
	C255.692276,667.004761 253.462799,665.722290 251.761871,665.572754 
	C250.863815,665.493774 249.102051,667.944275 248.840561,669.446106 
	C248.304626,672.523987 248.791748,675.771545 248.345535,678.875671 
	C247.888168,682.057556 246.819077,685.151428 245.998230,688.360107 
	C237.642593,685.351379 238.649689,679.134155 238.268707,673.645203 
	C237.728912,665.868164 235.867645,664.500793 227.840210,666.845093 
	C229.254745,674.075928 230.352112,681.437988 232.198547,688.607178 
	C233.881943,695.143250 236.606277,696.888184 243.927261,697.119446 
M437.544861,674.035706 
	C434.769318,681.178650 429.484314,687.545166 430.165588,696.414062 
	C439.460236,694.598572 448.162842,687.922913 457.347748,697.848999 
	C457.675354,694.006531 458.527100,691.723206 457.907288,689.956116 
	C455.184509,682.193542 452.378235,674.420837 448.909302,666.974670 
	C446.951569,662.772400 443.484009,663.087646 440.971375,667.169128 
	C439.767395,669.125000 438.922394,671.301880 437.544861,674.035706 
M207.404114,686.200806 
	C205.960678,684.710083 203.856781,683.461182 203.205017,681.680725 
	C201.626389,677.368408 206.097290,674.069336 212.291702,675.282288 
	C216.147476,676.037292 219.278351,675.783997 219.807602,671.475037 
	C220.311935,667.368958 217.038651,665.725403 213.559036,665.101379 
	C205.474258,663.651428 197.550980,668.000061 194.468979,675.384460 
	C191.776428,681.835754 194.407166,690.125916 200.610382,694.737732 
	C208.427979,700.549805 215.053345,698.856567 219.219482,690.101501 
	C215.501251,688.957092 211.765732,687.807373 207.404114,686.200806 
M603.862854,670.455444 
	C599.411011,676.857300 599.674316,678.507202 606.174316,682.754517 
	C609.038391,684.626038 612.073669,686.235535 615.031189,687.964050 
	C614.918152,688.367371 614.805115,688.770752 614.692078,689.174133 
	C610.405823,689.174133 606.119507,689.174133 601.609009,689.174133 
	C604.280518,695.588501 609.991089,699.009644 615.442261,697.954834 
	C619.654480,697.139771 624.491272,691.871155 624.982178,687.495972 
	C625.588867,682.089722 621.794800,680.451721 617.722595,678.939758 
	C616.129028,678.348083 614.695557,677.325256 612.090515,675.895996 
	C615.164368,675.014160 617.099060,674.696350 618.809204,673.897644 
	C620.331421,673.186646 621.605042,671.943054 622.988342,670.934570 
	C621.794312,669.300232 620.943848,667.078918 619.341980,666.141235 
	C614.470215,663.289429 609.361511,664.756348 603.862854,670.455444 
M142.485550,674.042358 
	C145.376694,674.042358 148.267822,674.042358 151.685211,674.042358 
	C151.258774,671.053406 150.989532,669.166321 150.737030,667.396545 
	C148.522339,666.968567 146.750534,666.549866 144.955582,666.292786 
	C137.930527,665.286560 132.985168,667.806519 131.735214,672.970093 
	C130.725815,677.139954 134.347305,682.098083 140.112442,684.404297 
	C140.723724,684.648743 141.477585,684.631653 142.000763,684.981812 
	C143.085083,685.707581 144.058792,686.598633 145.077988,687.421753 
	C144.866318,687.992188 144.654648,688.562683 144.442993,689.133118 
	C140.746735,688.555725 137.050476,687.978333 133.374649,687.404114 
	C132.346680,695.324341 136.876526,699.256836 145.569031,697.969421 
	C150.418167,697.251221 154.231308,693.051270 155.183853,687.863525 
	C156.161102,682.541199 152.930115,680.491394 148.874451,678.623596 
	C146.362534,677.466736 144.122818,675.718872 142.485550,674.042358 
M355.310303,688.359924 
	C355.673859,690.916748 356.037384,693.473511 356.392120,695.968262 
	C360.971619,696.507202 361.845703,695.830688 362.863861,692.544250 
	C364.646515,686.790100 366.755188,681.137756 368.664032,675.421631 
	C369.670074,672.408936 370.542511,669.351624 371.475250,666.314392 
	C370.877563,665.833679 370.279877,665.352905 369.682220,664.872131 
	C365.819275,667.613770 361.956360,670.355408 358.003967,673.160522 
	C355.070648,669.691772 352.721527,663.579163 344.879730,666.897888 
	C346.100525,669.270264 347.314636,671.546021 348.452667,673.859192 
	C350.693726,678.414551 352.892609,682.990540 355.310303,688.359924 
M463.019867,672.230896 
	C469.656830,673.976990 470.054749,679.028625 469.634277,684.579529 
	C469.535217,685.887756 469.845490,687.221619 469.859314,688.544800 
	C469.902313,692.664185 472.018127,695.201172 476.374359,697.000916 
	C476.691345,695.099854 477.123230,693.593628 477.160156,692.077820 
	C477.257141,688.098145 476.800568,684.062683 477.329468,680.152954 
	C477.612335,678.061951 479.141113,675.844299 480.712738,674.299438 
	C482.565918,672.477844 485.073608,671.322083 487.297546,669.877563 
	C487.152039,669.107361 487.006561,668.337158 486.861053,667.566956 
	C483.893372,666.709045 480.973419,665.503174 477.945038,665.087585 
	C474.685150,664.640320 471.289795,665.223877 468.013672,664.841797 
	C461.788849,664.115906 460.908691,665.073975 463.019867,672.230896 
M331.946350,689.931763 
	C331.946350,685.139893 331.946350,680.348083 331.946350,676.382019 
	C334.523376,674.818054 336.661774,674.054382 337.955994,672.559753 
	C338.927032,671.438293 339.429810,669.192261 339.008942,667.785706 
	C338.582642,666.360840 336.688019,664.260925 335.569733,664.340088 
	C328.786957,664.819824 322.042267,665.838257 314.538422,666.769348 
	C316.024658,668.923706 316.680450,670.081055 317.530212,671.072021 
	C322.403473,676.755066 326.193604,682.726990 325.156952,690.819946 
	C324.945251,692.472839 326.824371,694.393616 328.385925,697.459778 
	C330.011108,694.394226 330.965912,692.593201 331.946350,689.931763 
M305.257324,664.368042 
	C301.024597,663.754639 301.153931,666.969849 301.085846,669.504456 
	C300.907074,676.160583 300.678040,682.848755 301.161591,689.473511 
	C301.364532,692.253784 303.314789,694.906433 304.470673,697.617126 
	C305.243866,697.595215 306.017090,697.573364 306.790314,697.551453 
	C307.829254,694.444580 309.515503,691.389404 309.768951,688.219666 
	C310.258575,682.096375 309.748932,675.899658 310.034332,669.750977 
	C310.183716,666.532471 308.821808,665.198181 305.257324,664.368042 
z"/>
<path fill="#429746" opacity="1.000000" stroke="none" 
	d="
M413.927948,418.255127 
	C424.919830,418.220428 435.911713,418.157745 446.903595,418.157806 
	C461.867401,418.157928 475.674713,413.732819 488.812286,407.008514 
	C506.094727,398.162750 523.180725,388.929321 540.539001,380.237518 
	C546.766907,377.119049 549.010254,372.734558 548.936707,365.954742 
	C548.529663,328.462585 548.343140,290.967560 548.218628,253.473083 
	C548.192688,245.648285 548.697021,237.819260 549.068298,229.997467 
	C549.152893,228.216583 549.699646,226.457642 550.144226,224.103012 
	C562.232788,230.304718 574.020752,235.993820 585.350586,242.482773 
	C587.483643,243.704422 588.763611,248.106522 588.787292,251.054230 
	C588.984985,275.717865 588.797974,300.384644 588.724976,325.050446 
	C588.668701,344.048187 588.254517,363.054077 588.687988,382.040588 
	C588.938171,393.000641 584.866211,399.764587 574.858765,404.808655 
	C514.087646,435.439301 453.529541,466.493958 393.007111,497.614838 
	C384.997437,501.733459 377.983765,500.695831 370.458710,496.724304 
	C321.694336,470.987671 272.877167,445.350769 224.021591,419.787628 
	C213.738144,414.406952 203.312836,409.275787 192.787888,404.384766 
	C183.550125,400.091858 179.575104,393.094604 179.579773,383.042633 
	C179.593887,352.711121 179.331436,322.379456 179.185211,292.047821 
	C179.131378,280.881622 179.046707,269.715149 179.074295,258.549042 
	C179.105957,245.731720 183.419312,239.606903 195.218933,234.472137 
	C202.488113,231.308807 209.555740,227.682266 217.526184,223.875748 
	C217.867844,228.981064 218.479462,233.834000 218.471954,238.685974 
	C218.411621,277.683319 218.436874,316.682770 217.987946,355.676422 
	C217.821579,370.127319 222.780243,380.273010 236.483704,386.621033 
	C252.132355,393.870056 267.170105,402.445923 282.416595,410.551849 
	C290.633606,414.920502 299.182861,417.159576 308.614929,417.119171 
	C326.774261,417.041443 344.936401,417.616425 363.864349,418.280762 
	C380.629517,418.734222 396.627686,418.832947 412.626007,418.892883 
	C413.059204,418.894470 413.493927,418.477112 413.927948,418.255127 
z"/>
<path fill="#429746" opacity="1.000000" stroke="none" 
	d="
M372.544678,115.429932 
	C291.927521,158.127075 211.630875,200.620407 130.839981,243.375305 
	C130.636749,241.790649 130.328720,240.563766 130.345779,239.341400 
	C130.531830,226.018707 130.813614,212.697250 130.968430,199.374283 
	C131.025452,194.467056 134.718781,192.476883 138.116592,190.622147 
	C149.179520,184.583282 160.405167,178.842239 171.575180,172.999924 
	C238.482574,138.004929 305.445282,103.114861 372.231110,67.889397 
	C380.311584,63.627422 387.172089,63.667793 395.093964,67.880684 
	C454.588226,99.520020 514.177185,130.981613 573.794678,162.388672 
	C592.008728,171.984024 610.308228,181.429443 628.764832,190.546265 
	C635.895813,194.068726 639.276367,198.937180 639.073059,206.970337 
	C638.745117,219.930176 638.985046,232.904388 638.985046,246.899460 
	C635.662598,245.356796 632.960083,244.256729 630.399536,242.890625 
	C551.060852,200.561584 471.705627,158.263168 392.463226,115.754471 
	C385.674744,112.112869 379.514679,111.247581 372.544678,115.429932 
z"/>
<path fill="#429746" opacity="1.000000" stroke="none" 
	d="
M343.690735,407.866943 
	C338.069702,406.499542 338.172882,402.242737 338.157196,398.249023 
	C338.068695,375.754669 338.183990,353.259033 338.005951,330.765594 
	C337.859589,312.275055 337.386932,293.787262 337.088409,275.297729 
	C336.959778,267.333893 338.290894,265.969604 346.150696,266.004211 
	C368.644928,266.103241 391.139008,266.226654 413.633057,266.358734 
	C415.630005,266.370453 417.635254,266.421875 419.621063,266.615112 
	C426.277191,267.262695 428.002563,269.123047 428.006195,275.800201 
	C428.023285,307.292908 428.006287,338.785614 428.002472,370.278320 
	C428.000977,382.601685 428.002197,394.925079 428.002197,407.903442 
	C399.936218,407.903442 372.029419,407.903442 343.690735,407.866943 
M395.269409,333.218323 
	C395.705719,338.967621 400.388336,338.419830 404.132812,339.064758 
	C408.007996,339.732239 409.499298,337.164886 410.109833,333.951355 
	C410.569397,331.532288 411.293152,328.938599 410.822052,326.643768 
	C410.487701,325.014862 408.583191,322.891632 406.991089,322.475677 
	C399.152435,320.427887 396.186646,323.097076 395.269409,333.218323 
z"/>
<path fill="#429646" opacity="1.000000" stroke="none" 
	d="
M417.785431,624.874695 
	C417.431000,622.844849 417.118225,621.206726 417.115204,619.568054 
	C417.065552,592.750427 417.046936,565.932800 417.040619,539.115112 
	C417.038757,531.276978 419.928650,528.709106 427.786469,529.488831 
	C435.806152,530.284668 441.808929,533.730408 446.680969,540.635864 
	C456.016113,553.867126 466.289520,566.436462 476.895905,580.219055 
	C476.895905,563.232849 476.895905,547.492798 476.895905,531.375732 
	C485.255554,531.375732 493.302246,531.375732 501.656494,531.375732 
	C501.763489,532.110657 501.967377,532.888794 501.977325,533.669373 
	C502.334656,561.812805 502.692505,589.956360 503.002838,618.100342 
	C503.081299,625.215515 502.424805,626.027649 495.521454,627.373901 
	C486.976044,629.040344 480.391510,625.959229 475.098114,619.150696 
	C465.718048,607.085754 456.121338,595.189026 446.587158,583.244324 
	C445.462250,581.834961 444.161041,580.566406 442.161804,578.379700 
	C442.161804,595.467163 442.161804,611.466248 442.161804,627.995728 
	C435.034851,627.995728 428.422638,628.142151 421.827454,627.872131 
	C420.508698,627.818176 419.254974,626.176025 417.785431,624.874695 
z"/>
<path fill="#429746" opacity="1.000000" stroke="none" 
	d="
M215.051178,620.932678 
	C216.239914,623.296265 217.311798,625.309753 218.747330,628.006348 
	C209.733566,628.006348 201.454117,628.278992 193.217911,627.803162 
	C191.302597,627.692444 188.946259,625.386047 187.807098,623.482849 
	C184.145889,617.365967 180.929550,610.980652 177.598770,604.668701 
	C174.887772,599.531311 170.736374,597.610657 165.153351,599.148682 
	C162.265442,599.944092 160.868149,601.683716 160.904205,604.963684 
	C160.966156,610.598267 161.030334,616.316589 160.165939,621.854980 
	C159.222855,627.897461 156.252533,629.437500 150.264420,628.925232 
	C146.871536,628.634949 143.374939,629.292419 140.030472,628.802856 
	C138.112259,628.522034 136.171967,627.042236 134.699554,625.626160 
	C133.945007,624.900452 134.021271,623.128540 134.019592,621.829041 
	C133.981522,592.332520 133.983490,562.835876 133.987915,533.339294 
	C133.988007,532.687256 134.104294,532.035217 134.232483,530.688965 
	C138.002365,530.457153 141.777863,529.854736 145.508759,530.060608 
	C160.595566,530.892822 175.806488,531.026550 190.713120,533.194946 
	C210.939407,536.137024 221.165466,556.878662 212.609451,575.651306 
	C210.897797,579.406860 208.775253,583.024780 206.452805,586.441589 
	C202.107681,592.834167 202.281265,598.993591 206.302887,605.448608 
	C209.371490,610.374023 212.070755,615.529480 215.051178,620.932678 
M189.826096,561.869812 
	C187.732651,560.064209 185.843079,557.084778 183.506500,556.679016 
	C177.173462,555.578979 170.649689,555.315063 164.204086,555.341370 
	C162.879349,555.346802 160.566147,557.967224 160.428421,559.533508 
	C159.955704,564.909485 160.246918,570.352722 160.246918,576.815918 
	C167.144150,576.815918 172.754608,577.064758 178.334656,576.758850 
	C187.204910,576.272583 191.000595,571.489502 189.826096,561.869812 
z"/>
<path fill="#439747" opacity="1.000000" stroke="none" 
	d="
M722.939331,529.430603 
	C726.567383,529.432434 729.706543,529.432434 733.350586,529.432434 
	C733.350586,537.416260 733.581116,545.003723 733.121948,552.549194 
	C733.046143,553.795837 729.949158,555.849182 728.251404,555.846069 
	C717.101501,555.825867 705.954102,555.259583 694.802490,555.042664 
	C687.818542,554.906738 684.441101,559.480286 687.326172,565.762634 
	C688.110352,567.470276 691.575623,568.821655 693.817200,568.831848 
	C702.965271,568.873535 712.113953,568.243652 721.266357,568.034241 
	C728.231262,567.874878 730.007385,569.790588 730.006653,576.875000 
	C730.005432,588.970337 729.053711,589.922852 717.011780,589.918030 
	C707.213074,589.914124 697.414368,589.917297 687.865601,589.917297 
	C687.454895,590.577637 687.163635,590.833191 687.143921,591.108215 
	C686.205811,604.175842 686.208740,604.187927 699.380554,603.881042 
	C710.200928,603.629028 721.021912,603.390503 731.839600,603.049194 
	C735.633301,602.929443 737.200195,603.901306 736.444519,608.250549 
	C735.625305,612.964783 735.912659,617.870667 735.708496,622.692627 
	C735.607910,625.068298 735.048035,626.740845 732.011414,626.797180 
	C708.401550,627.235413 684.794067,627.801147 660.625977,628.339966 
	C660.423340,625.100403 660.086365,622.158630 660.079407,619.216064 
	C660.016113,592.566101 660.008606,565.915955 659.989075,539.265869 
	C659.983154,531.129822 661.436035,529.561401 669.983398,529.454529 
	C681.307922,529.312988 692.635498,529.419067 703.961792,529.420532 
	C710.124695,529.421326 716.287659,529.425842 722.939331,529.430603 
z"/>
<path fill="#439747" opacity="1.000000" stroke="none" 
	d="
M245.723083,564.666016 
	C248.427536,557.494202 250.895950,550.649414 253.527786,543.868042 
	C255.850555,537.883057 259.895844,534.487183 266.778320,534.752319 
	C270.022339,534.877380 273.367859,534.144226 276.564392,533.372986 
	C284.326141,531.500183 286.364014,532.302063 289.627136,539.763306 
	C294.402130,550.681396 299.219757,561.588623 303.640900,572.651672 
	C310.387543,589.533936 316.822327,606.540894 323.347839,623.510925 
	C323.811462,624.716553 323.933777,626.053467 324.353088,627.957031 
	C316.548096,627.957031 309.108093,628.321411 301.748627,627.712219 
	C299.800690,627.550964 297.166504,624.701843 296.452881,622.553650 
	C293.722229,614.333313 288.566376,611.050171 279.912140,611.741943 
	C274.160339,612.201721 268.301422,611.245544 262.486755,611.017639 
	C257.484161,610.821655 254.448990,613.237244 253.107513,618.093140 
	C250.866989,626.203369 248.346451,628.036438 240.103622,628.008667 
	C234.490936,627.989746 228.878143,628.005005 221.874939,628.005005 
	C230.007721,606.376221 237.782913,585.698425 245.723083,564.666016 
M280.412018,582.086731 
	C277.828064,575.514343 275.244110,568.942017 272.660126,562.369629 
	C272.257477,562.319580 271.854828,562.269592 271.452179,562.219543 
	C268.440979,570.988220 265.429749,579.756897 262.341553,588.749756 
	C269.668884,588.749756 276.170166,588.749756 282.999115,588.749756 
	C282.149658,586.475159 281.460083,584.628601 280.412018,582.086731 
z"/>
<path fill="#439747" opacity="1.000000" stroke="none" 
	d="
M588.662659,591.128601 
	C593.386047,601.421387 601.646423,605.721985 611.930603,602.445862 
	C618.477661,600.360229 624.591431,596.914673 631.670105,593.732422 
	C636.749634,597.676453 642.766907,602.348572 648.789185,607.024597 
	C622.428833,639.625793 577.211548,630.808838 562.583923,599.467163 
	C549.926086,572.346069 566.495422,535.626892 598.260803,528.992920 
	C617.631775,524.947449 632.832947,531.832947 644.710999,546.781494 
	C646.035583,548.448486 645.496521,552.954102 644.153931,555.099731 
	C641.356506,559.570618 637.442383,563.342712 634.298279,567.036377 
	C628.345093,563.669189 624.285034,560.585266 619.706299,558.988525 
	C614.354919,557.122437 608.404968,555.136902 602.972229,555.697754 
	C588.902832,557.150146 585.132935,569.085388 586.231689,581.122925 
	C586.529480,584.385559 587.700378,587.568542 588.662659,591.128601 
z"/>
<path fill="#439647" opacity="1.000000" stroke="none" 
	d="
M82.969421,571.937622 
	C87.672401,559.361206 92.450974,547.219971 96.862564,534.946899 
	C97.961830,531.888733 99.386467,530.927307 102.518822,531.021545 
	C109.831314,531.241516 117.154915,531.091797 125.316528,531.091797 
	C124.432625,534.070435 123.894814,536.728088 122.876045,539.186462 
	C111.472374,566.704285 99.743126,594.091431 88.726387,621.762451 
	C86.200333,628.107239 81.717812,627.121582 77.097305,627.860168 
	C67.420807,629.407043 61.833611,627.108887 58.192371,618.211853 
	C46.662933,590.040649 35.499493,561.719727 24.222288,533.445557 
	C23.993996,532.873169 24.103876,532.165955 24.030636,531.180603 
	C31.661226,531.180603 39.112221,531.047852 46.555752,531.226318 
	C51.691048,531.349487 53.394741,535.558716 54.848492,539.428711 
	C59.384262,551.503418 63.686619,563.665894 68.066284,575.799072 
	C70.014168,581.195312 71.930489,586.602966 75.123093,592.166443 
	C77.718506,585.552368 80.313927,578.938232 82.969421,571.937622 
z"/>
<path fill="#439747" opacity="1.000000" stroke="none" 
	d="
M290.389526,197.642853 
	C291.327576,216.360504 292.679993,234.632553 292.871735,252.916763 
	C293.254028,289.375946 293.085114,325.842102 292.954712,362.304718 
	C292.915466,373.282440 292.288452,384.259430 291.842926,395.233215 
	C291.750610,397.507263 291.269257,399.765533 290.890442,402.606506 
	C285.206573,400.593872 279.779236,399.325256 275.095551,396.719849 
	C272.965118,395.534698 271.209381,391.728516 271.152008,389.070892 
	C270.674164,366.936432 270.573303,344.792816 270.471924,322.651459 
	C270.291931,283.353943 270.276062,244.055344 269.958618,204.759079 
	C269.915314,199.400772 271.413422,195.960785 276.491638,193.849716 
	C280.571411,192.153671 284.360870,189.759415 289.019562,187.281128 
	C289.501617,191.079056 289.890289,194.140884 290.389526,197.642853 
z"/>
<path fill="#449748" opacity="1.000000" stroke="none" 
	d="
M489.013123,192.962738 
	C494.689270,195.077972 496.118073,199.108688 496.077972,204.492569 
	C495.627655,264.965240 495.283173,325.438721 494.987885,385.912384 
	C494.958710,391.883972 493.032288,396.104614 486.906311,397.980377 
	C482.507202,399.327393 478.270264,401.204010 473.492798,403.022552 
	C473.492798,330.587860 473.492798,258.580322 473.492798,185.749649 
	C478.662323,188.166016 483.660583,190.502350 489.013123,192.962738 
z"/>
<path fill="#439747" opacity="1.000000" stroke="none" 
	d="
M326.985962,529.889771 
	C335.543488,529.883118 343.689941,529.924072 351.836151,529.992859 
	C365.499481,530.108276 379.163361,530.192383 392.825714,530.383423 
	C402.788940,530.522766 404.089264,532.019958 403.696930,541.787354 
	C403.530670,545.927063 403.669220,550.079041 403.669220,555.003174 
	C396.779785,555.003174 390.205414,554.985779 383.631165,555.007446 
	C374.618713,555.037109 373.877106,555.711548 374.022491,564.643738 
	C374.326141,583.299438 374.782440,601.952637 375.056366,620.608643 
	C375.157959,627.528625 374.552338,627.988403 367.660736,628.003784 
	C364.328156,628.011230 360.988892,628.118469 357.664612,627.947571 
	C353.463837,627.731628 350.968323,625.898987 350.876221,621.157471 
	C350.523529,603.006165 350.087250,584.854309 349.425812,566.711975 
	C349.049622,556.394104 348.393250,556.004333 337.828125,556.003113 
	C332.832397,556.002563 327.836670,556.003052 322.404877,556.003052 
	C322.404877,548.630737 322.175140,541.390320 322.593933,534.187622 
	C322.680267,532.702881 325.184814,531.358765 326.985962,529.889771 
z"/>
<path fill="#449647" opacity="1.000000" stroke="none" 
	d="
M511.014465,257.000000 
	C511.013947,239.428253 511.013947,222.356506 511.013947,205.284760 
	C511.543915,205.087646 512.073914,204.890533 512.603882,204.693436 
	C518.327087,208.226730 524.251160,211.485641 529.660645,215.447327 
	C531.468445,216.771317 532.914429,219.891235 532.914307,222.190125 
	C532.911804,270.295471 532.749451,318.401276 532.430359,366.505707 
	C532.364685,376.408173 530.296265,378.525665 520.492371,381.287048 
	C518.149902,381.946838 515.807434,382.606598 512.573975,383.517334 
	C512.050110,379.094635 511.207428,375.227783 511.193329,371.357880 
	C511.054962,333.405548 511.054565,295.452698 511.014465,257.000000 
z"/>
<path fill="#449747" opacity="1.000000" stroke="none" 
	d="
M254.047668,366.998810 
	C254.048096,373.316833 254.048096,379.135162 254.048096,385.837097 
	C248.125122,383.143036 242.666351,380.875671 237.453629,378.139587 
	C236.128326,377.443939 235.065292,375.347107 234.791428,373.739166 
	C234.237015,370.483978 234.143005,367.122833 234.140961,363.805237 
	C234.111511,315.972107 234.180283,268.138794 234.034592,220.306122 
	C234.023331,216.603714 235.125931,214.571625 238.363022,213.023514 
	C243.421677,210.604294 248.309128,207.827072 254.047256,204.789627 
	C254.047256,259.098206 254.047256,312.798676 254.047668,366.998810 
z"/>
<path fill="#459749" opacity="1.000000" stroke="none" 
	d="
M543.826172,602.999634 
	C543.797424,609.330566 543.974365,615.172119 543.680786,620.989868 
	C543.396667,626.620728 541.891785,627.925049 536.172607,627.863281 
	C532.213318,627.820435 528.158386,627.764160 524.347534,626.862793 
	C522.634155,626.457520 520.830261,624.200256 520.116943,622.373474 
	C519.243958,620.137817 519.267456,617.473267 519.255005,614.992371 
	C519.125854,589.167236 519.059509,563.341614 518.995789,537.516174 
	C518.981384,531.665833 521.468445,529.384399 527.167542,529.797180 
	C529.323364,529.953247 531.491821,529.979248 533.654663,529.986145 
	C542.548767,530.014282 543.640259,530.881531 543.709045,540.020020 
	C543.865845,560.845703 543.800903,581.673096 543.826172,602.999634 
z"/>
<path fill="#439747" opacity="1.000000" stroke="none" 
	d="
M359.603394,148.648712 
	C364.623169,145.661194 369.352142,142.904114 374.043182,140.083878 
	C379.151001,137.013092 384.618225,136.561752 389.661835,139.446884 
	C399.299896,144.960159 408.633789,151.006332 418.065582,156.876892 
	C418.970001,157.439804 419.674927,158.323151 421.242462,159.766983 
	C409.254639,159.297012 412.608246,167.917648 411.492828,174.768097 
	C408.201050,173.159500 405.221252,171.883682 402.414490,170.300980 
	C389.359955,162.939713 376.836273,162.849106 364.184631,171.713333 
	C359.260742,175.163223 353.333679,177.322159 347.645966,179.500992 
	C342.086517,181.630692 331.528168,174.019653 332.237305,168.263977 
	C332.521667,165.956116 334.850281,163.288971 336.979156,161.930634 
	C344.242706,157.296051 351.831299,153.170898 359.603394,148.648712 
z"/>
<path fill="#439647" opacity="1.000000" stroke="none" 
	d="
M359.167725,211.379868 
	C358.583405,193.978516 366.530548,182.450134 381.602081,178.498764 
	C383.312408,178.050369 385.256226,177.922226 386.990417,178.225418 
	C400.970703,180.669586 412.521301,199.612961 408.385498,213.143509 
	C405.322296,223.165009 394.602753,230.913483 383.872406,230.862534 
	C373.033264,230.811066 363.041473,223.075897 359.167725,211.379868 
M385.024414,198.243805 
	C380.630951,197.506805 378.341583,200.220398 377.529053,203.773071 
	C377.113068,205.591995 378.113220,209.210663 379.282501,209.602753 
	C381.572052,210.370468 384.870270,210.227249 386.952179,209.049271 
	C390.502869,207.040176 389.724762,202.558853 385.024414,198.243805 
z"/>
<path fill="#459749" opacity="1.000000" stroke="none" 
	d="
M89.971069,690.916138 
	C74.345345,690.916565 59.214344,690.950500 44.083569,690.907043 
	C37.251671,690.887390 34.518368,687.906372 35.264786,681.326477 
	C35.710732,677.395264 37.608871,674.987732 42.009747,674.960327 
	C60.795723,674.843262 79.580673,674.556274 98.366669,674.450623 
	C104.987183,674.413391 106.037170,675.495117 106.076118,681.226990 
	C106.125626,688.514099 104.284790,690.731445 97.947906,690.905029 
	C95.455650,690.973328 92.959991,690.917480 89.971069,690.916138 
z"/>
<path fill="#47974A" opacity="1.000000" stroke="none" 
	d="
M736.852112,686.354736 
	C734.873352,687.855774 733.001770,689.855286 731.117249,689.867432 
	C715.006409,689.971802 698.889954,689.862793 682.782349,689.499634 
	C675.791138,689.342041 673.066467,685.416199 674.763062,679.164185 
	C675.655273,675.876587 677.633972,674.018494 681.097595,673.976624 
	C697.539124,673.777832 713.980591,673.530151 730.422729,673.454956 
	C735.688171,673.430908 736.984680,675.020691 737.014587,680.451477 
	C737.024658,682.278198 736.975464,684.105103 736.852112,686.354736 
z"/>
<path fill="#459749" opacity="1.000000" stroke="none" 
	d="
M557.887024,677.087280 
	C561.501892,667.855347 568.026428,663.400513 576.567810,663.993103 
	C583.326538,664.462036 589.412170,670.025024 591.364685,677.519104 
	C593.093628,684.155396 587.248901,693.296082 579.618652,695.352600 
	C573.165161,697.092041 566.984863,696.237122 562.013306,691.393982 
	C558.143127,687.623657 555.827271,683.134949 557.887024,677.087280 
M578.564148,685.022583 
	C578.999023,684.313599 579.431641,683.603210 579.869141,682.895874 
	C581.590027,680.113098 582.463318,677.399902 579.171753,675.072266 
	C576.345337,673.073303 570.267578,673.652100 568.647339,676.359009 
	C566.797546,679.449463 566.383911,682.725708 569.740784,685.248108 
	C571.561462,686.616272 573.587402,687.711365 575.694702,689.039246 
	C576.626587,687.730286 577.385315,686.664612 578.564148,685.022583 
z"/>
<path fill="#449748" opacity="1.000000" stroke="none" 
	d="
M285.368073,666.466064 
	C291.442413,670.844055 292.385864,673.391663 289.049255,679.656982 
	C287.004578,683.496338 286.951172,686.446777 289.368103,690.069580 
	C290.702850,692.070312 290.803070,694.894714 291.565399,697.742249 
	C283.276794,698.689636 280.893250,692.030029 276.285278,688.362122 
	C274.171234,691.615112 272.047424,694.883118 269.923584,698.151123 
	C269.387085,698.139709 268.850555,698.128296 268.314056,698.116821 
	C267.851868,695.782715 267.167603,693.467041 266.972321,691.110779 
	C266.520599,685.661011 265.930389,680.181213 266.081451,674.732605 
	C266.316772,666.245483 272.860291,661.942688 280.918488,664.567322 
	C282.329529,665.026917 283.675781,665.685425 285.368073,666.466064 
z"/>
<path fill="#459749" opacity="1.000000" stroke="none" 
	d="
M542.145630,685.754395 
	C535.780457,684.559570 533.291626,686.293518 533.093018,692.191589 
	C532.989929,695.250732 532.433105,697.686707 529.004761,697.714600 
	C525.458252,697.743408 524.978821,695.082458 524.944092,692.145813 
	C524.869507,685.831726 524.338623,679.507202 524.604492,673.212646 
	C524.716492,670.561646 526.371399,667.975769 527.324890,665.360352 
	C527.959961,665.339539 528.594971,665.318787 529.230042,665.297974 
	C530.476624,667.478271 532.252808,669.528687 532.827942,671.873657 
	C533.463806,674.466431 534.019531,676.069397 537.106201,676.151001 
	C540.400940,676.237976 542.041809,674.683228 542.770081,671.782654 
	C543.008545,670.832886 542.593323,669.563293 543.083191,668.865601 
	C544.034363,667.510864 545.480103,665.451538 546.601074,665.524475 
	C548.127991,665.623962 550.765137,667.397888 550.809570,668.536499 
	C551.125916,676.642944 551.039001,684.775940 550.712952,692.885681 
	C550.660461,694.191467 548.776550,695.423584 546.791931,697.845947 
	C545.128418,693.290955 543.797729,689.647339 542.145630,685.754395 
z"/>
<path fill="#449748" opacity="1.000000" stroke="none" 
	d="
M162.874207,688.949402 
	C162.909790,682.627869 162.834641,676.793762 163.062027,670.971436 
	C163.119019,669.511719 163.744797,667.587219 164.801544,666.739807 
	C168.842209,663.499817 183.234955,664.613098 187.370499,668.206421 
	C185.021011,675.724915 178.254791,673.507935 172.821060,674.228088 
	C172.712677,674.770508 172.604309,675.312927 172.495926,675.855408 
	C176.743668,677.462891 180.991409,679.070435 185.239151,680.677917 
	C185.307526,681.161865 185.375885,681.645752 185.444260,682.129700 
	C181.124725,683.553894 176.805191,684.978088 171.748138,686.645447 
	C175.460831,687.671448 178.542831,688.597107 181.663925,689.363525 
	C184.400223,690.035461 186.597183,691.569458 185.768143,694.402893 
	C185.407928,695.633972 182.672333,696.799500 180.957245,696.890137 
	C175.166946,697.196045 169.350464,697.006653 162.875458,697.006653 
	C162.875458,694.292725 162.875458,691.866943 162.874207,688.949402 
z"/>
<path fill="#459749" opacity="1.000000" stroke="none" 
	d="
M493.054749,675.043945 
	C493.053619,671.594849 493.053619,668.637146 493.053619,665.060059 
	C499.716187,665.060059 505.849976,664.746887 511.913330,665.262146 
	C513.601807,665.405640 515.082092,667.999817 516.657898,669.469727 
	C514.880981,671.265991 513.388245,673.630920 511.248108,674.700256 
	C509.060638,675.793152 506.238068,675.614990 503.653534,675.999207 
	C507.428284,677.688965 510.901550,679.243774 514.374817,680.798584 
	C514.346680,681.374695 514.318604,681.950867 514.290466,682.527039 
	C510.818939,683.972229 507.347443,685.417419 503.617279,686.970276 
	C507.964935,689.027283 511.873932,690.876770 516.080078,692.866882 
	C511.937164,696.666504 499.980988,698.801392 496.035339,696.296326 
	C494.469604,695.302307 493.401245,692.560181 493.232971,690.520996 
	C492.823090,685.554749 493.072144,680.534058 493.054749,675.043945 
z"/>
<path fill="#47974A" opacity="1.000000" stroke="none" 
	d="
M649.097717,677.820068 
	C651.193054,678.786865 652.935120,679.621948 655.271667,680.742004 
	C651.298096,682.752747 647.802368,684.521606 643.223755,686.838501 
	C646.850342,687.944885 649.782837,688.377075 652.202576,689.727844 
	C654.051392,690.760010 656.301941,692.832153 656.515137,694.658691 
	C656.925232,698.171204 653.603149,696.928101 651.740906,696.875244 
	C646.920593,696.738525 642.024231,696.715149 637.338257,695.761719 
	C635.629944,695.414185 633.315552,692.639038 633.197205,690.844788 
	C632.748596,684.047424 632.958801,677.192627 633.255981,670.373779 
	C633.305847,669.228882 634.875610,667.361023 635.964539,667.183167 
	C641.529907,666.274353 647.158752,665.549988 652.786194,665.351624 
	C654.435791,665.293579 656.153564,667.171448 657.840088,668.161987 
	C656.631958,669.753906 655.726685,672.209229 654.153748,672.760986 
	C650.695374,673.973999 646.899658,674.224854 643.244324,675.744934 
	C645.077698,676.392761 646.911011,677.040588 649.097717,677.820068 
z"/>
<path fill="#47974A" opacity="1.000000" stroke="none" 
	d="
M405.477051,676.647888 
	C402.007629,684.129822 404.542389,687.967407 412.693298,687.588928 
	C412.515808,685.049622 412.338318,682.509888 412.125519,679.464966 
	C413.353973,679.654297 414.273254,679.708191 415.142731,679.945007 
	C419.205322,681.051758 424.194336,681.188721 424.685760,686.880249 
	C425.011749,690.655640 418.984589,696.221802 414.124634,696.911682 
	C407.449707,697.859253 402.028168,695.630127 398.180634,689.974487 
	C394.573090,684.671631 393.329681,678.842468 396.459930,673.119873 
	C399.741364,667.120972 405.538666,664.008118 412.241486,664.710938 
	C415.449982,665.047363 418.381134,668.028625 421.437897,669.812012 
	C421.340668,670.279297 421.243439,670.746643 421.146240,671.213989 
	C416.042053,672.954712 410.937866,674.695496 405.477051,676.647888 
z"/>
<path fill="#47974A" opacity="1.000000" stroke="none" 
	d="
M243.558502,697.179688 
	C236.606277,696.888184 233.881943,695.143250 232.198547,688.607178 
	C230.352112,681.437988 229.254745,674.075928 227.840210,666.845093 
	C235.867645,664.500793 237.728912,665.868164 238.268707,673.645203 
	C238.649689,679.134155 237.642593,685.351379 245.998230,688.360107 
	C246.819077,685.151428 247.888168,682.057556 248.345535,678.875671 
	C248.791748,675.771545 248.304626,672.523987 248.840561,669.446106 
	C249.102051,667.944275 250.863815,665.493774 251.761871,665.572754 
	C253.462799,665.722290 255.692276,667.004761 256.544891,668.483704 
	C261.629425,677.303040 253.721466,694.949646 243.558502,697.179688 
z"/>
<path fill="#459749" opacity="1.000000" stroke="none" 
	d="
M437.729828,673.707153 
	C438.922394,671.301880 439.767395,669.125000 440.971375,667.169128 
	C443.484009,663.087646 446.951569,662.772400 448.909302,666.974670 
	C452.378235,674.420837 455.184509,682.193542 457.907288,689.956116 
	C458.527100,691.723206 457.675354,694.006531 457.347748,697.848999 
	C448.162842,687.922913 439.460236,694.598572 430.165588,696.414062 
	C429.484314,687.545166 434.769318,681.178650 437.729828,673.707153 
z"/>
<path fill="#47974A" opacity="1.000000" stroke="none" 
	d="
M207.717163,686.429199 
	C211.765732,687.807373 215.501251,688.957092 219.219482,690.101501 
	C215.053345,698.856567 208.427979,700.549805 200.610382,694.737732 
	C194.407166,690.125916 191.776428,681.835754 194.468979,675.384460 
	C197.550980,668.000061 205.474258,663.651428 213.559036,665.101379 
	C217.038651,665.725403 220.311935,667.368958 219.807602,671.475037 
	C219.278351,675.783997 216.147476,676.037292 212.291702,675.282288 
	C206.097290,674.069336 201.626389,677.368408 203.205017,681.680725 
	C203.856781,683.461182 205.960678,684.710083 207.717163,686.429199 
z"/>
<path fill="#449748" opacity="1.000000" stroke="none" 
	d="
M604.094666,670.166138 
	C609.361511,664.756348 614.470215,663.289429 619.341980,666.141235 
	C620.943848,667.078918 621.794312,669.300232 622.988342,670.934570 
	C621.605042,671.943054 620.331421,673.186646 618.809204,673.897644 
	C617.099060,674.696350 615.164368,675.014160 612.090515,675.895996 
	C614.695557,677.325256 616.129028,678.348083 617.722595,678.939758 
	C621.794800,680.451721 625.588867,682.089722 624.982178,687.495972 
	C624.491272,691.871155 619.654480,697.139771 615.442261,697.954834 
	C609.991089,699.009644 604.280518,695.588501 601.609009,689.174133 
	C606.119507,689.174133 610.405823,689.174133 614.692078,689.174133 
	C614.805115,688.770752 614.918152,688.367371 615.031189,687.964050 
	C612.073669,686.235535 609.038391,684.626038 606.174316,682.754517 
	C599.674316,678.507202 599.411011,676.857300 604.094666,670.166138 
z"/>
<path fill="#47974A" opacity="1.000000" stroke="none" 
	d="
M142.123230,674.139343 
	C144.122818,675.718872 146.362534,677.466736 148.874451,678.623596 
	C152.930115,680.491394 156.161102,682.541199 155.183853,687.863525 
	C154.231308,693.051270 150.418167,697.251221 145.569031,697.969421 
	C136.876526,699.256836 132.346680,695.324341 133.374649,687.404114 
	C137.050476,687.978333 140.746735,688.555725 144.442993,689.133118 
	C144.654648,688.562683 144.866318,687.992188 145.077988,687.421753 
	C144.058792,686.598633 143.085083,685.707581 142.000763,684.981812 
	C141.477585,684.631653 140.723724,684.648743 140.112442,684.404297 
	C134.347305,682.098083 130.725815,677.139954 131.735214,672.970093 
	C132.985168,667.806519 137.930527,665.286560 144.955582,666.292786 
	C146.750534,666.549866 148.522339,666.968567 150.737030,667.396545 
	C150.989532,669.166321 151.258774,671.053406 151.685211,674.042358 
	C148.267822,674.042358 145.376694,674.042358 142.123230,674.139343 
z"/>
<path fill="#47974A" opacity="1.000000" stroke="none" 
	d="
M355.209595,687.958984 
	C352.892609,682.990540 350.693726,678.414551 348.452667,673.859192 
	C347.314636,671.546021 346.100525,669.270264 344.879730,666.897888 
	C352.721527,663.579163 355.070648,669.691772 358.003967,673.160522 
	C361.956360,670.355408 365.819275,667.613770 369.682220,664.872131 
	C370.279877,665.352905 370.877563,665.833679 371.475250,666.314392 
	C370.542511,669.351624 369.670074,672.408936 368.664032,675.421631 
	C366.755188,681.137756 364.646515,686.790100 362.863861,692.544250 
	C361.845703,695.830688 360.971619,696.507202 356.392120,695.968262 
	C356.037384,693.473511 355.673859,690.916748 355.209595,687.958984 
z"/>
<path fill="#449748" opacity="1.000000" stroke="none" 
	d="
M462.849091,671.862610 
	C460.908691,665.073975 461.788849,664.115906 468.013672,664.841797 
	C471.289795,665.223877 474.685150,664.640320 477.945038,665.087585 
	C480.973419,665.503174 483.893372,666.709045 486.861053,667.566956 
	C487.006561,668.337158 487.152039,669.107361 487.297546,669.877563 
	C485.073608,671.322083 482.565918,672.477844 480.712738,674.299438 
	C479.141113,675.844299 477.612335,678.061951 477.329468,680.152954 
	C476.800568,684.062683 477.257141,688.098145 477.160156,692.077820 
	C477.123230,693.593628 476.691345,695.099854 476.374359,697.000916 
	C472.018127,695.201172 469.902313,692.664185 469.859314,688.544800 
	C469.845490,687.221619 469.535217,685.887756 469.634277,684.579529 
	C470.054749,679.028625 469.656830,673.976990 462.849091,671.862610 
z"/>
<path fill="#459749" opacity="1.000000" stroke="none" 
	d="
M331.933533,690.361938 
	C330.965912,692.593201 330.011108,694.394226 328.385925,697.459778 
	C326.824371,694.393616 324.945251,692.472839 325.156952,690.819946 
	C326.193604,682.726990 322.403473,676.755066 317.530212,671.072021 
	C316.680450,670.081055 316.024658,668.923706 314.538422,666.769348 
	C322.042267,665.838257 328.786957,664.819824 335.569733,664.340088 
	C336.688019,664.260925 338.582642,666.360840 339.008942,667.785706 
	C339.429810,669.192261 338.927032,671.438293 337.955994,672.559753 
	C336.661774,674.054382 334.523376,674.818054 331.946350,676.382019 
	C331.946350,680.348083 331.946350,685.139893 331.933533,690.361938 
z"/>
<path fill="#47974A" opacity="1.000000" stroke="none" 
	d="
M305.613861,664.555420 
	C308.821808,665.198181 310.183716,666.532471 310.034332,669.750977 
	C309.748932,675.899658 310.258575,682.096375 309.768951,688.219666 
	C309.515503,691.389404 307.829254,694.444580 306.790314,697.551453 
	C306.017090,697.573364 305.243866,697.595215 304.470673,697.617126 
	C303.314789,694.906433 301.364532,692.253784 301.161591,689.473511 
	C300.678040,682.848755 300.907074,676.160583 301.085846,669.504456 
	C301.153931,666.969849 301.024597,663.754639 305.613861,664.555420 
z"/>
<path fill="#429646" opacity="1.000000" stroke="none" 
	d="
M413.471771,418.172241 
	C413.493927,418.477112 413.059204,418.894470 412.626007,418.892883 
	C396.627686,418.832947 380.629517,418.734222 364.326233,418.360840 
	C380.352631,418.083740 396.684113,418.086578 413.471771,418.172241 
z"/>
<path fill="#EFF0EF" opacity="1.000000" stroke="none" 
	d="
M395.251495,332.811218 
	C396.186646,323.097076 399.152435,320.427887 406.991089,322.475677 
	C408.583191,322.891632 410.487701,325.014862 410.822052,326.643768 
	C411.293152,328.938599 410.569397,331.532288 410.109833,333.951355 
	C409.499298,337.164886 408.007996,339.732239 404.132812,339.064758 
	C400.388336,338.419830 395.705719,338.967621 395.251495,332.811218 
z"/>
<path fill="#F6F6F6" opacity="1.000000" stroke="none" 
	d="
M189.933289,562.226807 
	C191.000595,571.489502 187.204910,576.272583 178.334656,576.758850 
	C172.754608,577.064758 167.144150,576.815918 160.246918,576.815918 
	C160.246918,570.352722 159.955704,564.909485 160.428421,559.533508 
	C160.566147,557.967224 162.879349,555.346802 164.204086,555.341370 
	C170.649689,555.315063 177.173462,555.578979 183.506500,556.679016 
	C185.843079,557.084778 187.732651,560.064209 189.933289,562.226807 
z"/>
<path fill="#EAEAEA" opacity="1.000000" stroke="none" 
	d="
M280.591248,582.434448 
	C281.460083,584.628601 282.149658,586.475159 282.999115,588.749756 
	C276.170166,588.749756 269.668884,588.749756 262.341553,588.749756 
	C265.429749,579.756897 268.440979,570.988220 271.452179,562.219543 
	C271.854828,562.269592 272.257477,562.319580 272.660126,562.369629 
	C275.244110,568.942017 277.828064,575.514343 280.591248,582.434448 
z"/>
<path fill="#EAEAEA" opacity="1.000000" stroke="none" 
	d="
M385.355316,198.446320 
	C389.724762,202.558853 390.502869,207.040176 386.952179,209.049271 
	C384.870270,210.227249 381.572052,210.370468 379.282501,209.602753 
	C378.113220,209.210663 377.113068,205.591995 377.529053,203.773071 
	C378.341583,200.220398 380.630951,197.506805 385.355316,198.446320 
z"/>
<path fill="#EFF0EF" opacity="1.000000" stroke="none" 
	d="
M578.354065,685.310730 
	C577.385315,686.664612 576.626587,687.730286 575.694702,689.039246 
	C573.587402,687.711365 571.561462,686.616272 569.740784,685.248108 
	C566.383911,682.725708 566.797546,679.449463 568.647339,676.359009 
	C570.267578,673.652100 576.345337,673.073303 579.171753,675.072266 
	C582.463318,677.399902 581.590027,680.113098 579.869141,682.895874 
	C579.431641,683.603210 578.999023,684.313599 578.354065,685.310730 
z"/>
</svg>