<?xml version="1.0" encoding="utf-8"?>
<svg version="1.1" id="Vrstva_1" xmlns="http://www.w3.org/2000/svg" xmlns:xlink="http://www.w3.org/1999/xlink" x="0px" y="0px"
	 viewBox="0 0 150 150" style="enable-background:new 0 0 150 150;" xml:space="preserve">
<style type="text/css">
	.st0{fill:#FFFFFF;}
	.st1{fill:#419745;}
</style>
<title>diamo</title>
<g id="v2">
	<g id="v1">
		<rect x="0" y="0" class="st0" width="150" height="150"/>
		<path class="st1" d="M149.9,0H0.1H0c0,0,0,0.1,0,0.1v149.8c0,0,0,0.1,0.1,0.1c0,0,0,0,0,0h149.8c0,0,0,0,0.1,0c0,0,0,0,0-0.1
			L149.9,0C150,0.1,150,0,149.9,0C150,0,150,0,149.9,0 M0.9,149.1V0.9h148.1v148.1H0.9z"/>
		<path class="st1" d="M24.3,121.8l-17.3,0v21.3h17.3c5.9,0,8.7-4.8,8.7-10.7C33,126.6,30.2,121.8,24.3,121.8 M20.6,137.8h-6v-10.7
			h6c2.9,0,4.8,2.4,4.8,5.3S23.5,137.8,20.6,137.8"/>
		<path class="st1" d="M56.9,121.8l-8.4,21.3h7.6l0.8-2.3h9l0.8,2.3h7.6L66,121.8H56.9z M58.7,136.3l2.8-7.6l2.8,7.6H58.7z"/>
		<rect x="38.2" y="121.8" class="st1" width="7.6" height="21.3"/>
		<polygon class="st1" points="97.6,121.8 93.8,133.6 90,121.8 77.8,121.8 77.8,143.1 85.4,143.1 85.4,128.7 90.7,143.1 96.8,143.1 
			102.2,128.7 102.2,143.1 109.8,143.1 109.8,121.8"/>
		<path class="st1" d="M139.8,125c-2.4-3.2-7.8-3.4-7.8-3.4h-7.2c0,0-4.7,0.1-7.5,2.6c-2.9,2.7-3,5.2-3.1,7.5c0,1.9,0.2,3.8,0.6,5.7
			c0.7,2.1,2.3,3.9,4.3,4.8c1.8,0.7,3.7,1.1,5.6,1.1h7.4c2,0,3.9-0.6,5.5-1.6c2.7-1.7,4.3-4.6,4.4-7.8
			C142.3,130.6,142.2,128.2,139.8,125 M134.3,133.6c0,1.5-0.6,2.9-1.8,3.7c-0.7,0.5-1.6,0.8-2.5,0.8h-3.3c-0.9,0-1.7-0.2-2.5-0.6
			c-0.9-0.5-1.6-1.4-1.9-2.4c-0.2-0.9-0.3-1.9-0.3-2.9c-0.1-1.4,0.4-2.7,1.4-3.7c0.9-0.8,2-1.3,3.2-1.3h3.2c0,0,2.5,0.1,3.5,1.7
			C134.4,130.6,134.4,131.8,134.3,133.6"/>
		<path class="st1" d="M71.8,60.4c0-6.3-5.1-11.4-11.4-11.4c-6.3,0-11.4,5.1-11.4,11.4c0,6.3,5.1,11.4,11.4,11.4
			S71.8,66.7,71.8,60.4C71.8,60.4,71.8,60.4,71.8,60.4"/>
		<path class="st1" d="M89.2,8.4H38.3v15H8.3v89.7h80.9c28.9,0,52.3-23.4,52.3-52.4C141.5,31.8,118.1,8.4,89.2,8.4 M89.3,105.6H15.8
			V30.8h22.4v7.5h-15v59.8h65.9c20.6,0.3,37.7-16.1,38-36.8c0.3-20.6-16.1-37.7-36.8-38c-0.4,0-0.8,0-1.2,0H53.2v7.5h36
			c16.5,0,29.9,13.4,29.9,29.9c0,16.5-13.4,29.9-29.9,29.9h-0.1H30.8V45.8h7.5v37.4h50.9c12.4,0,22.4-10,22.4-22.4
			s-10-22.4-22.4-22.4l0,0H53.2v7.5h35.9l0,0c8.3,0.7,14.4,7.9,13.7,16.2c-0.6,7.3-6.4,13.1-13.7,13.7l0,0H45.7V15.9h43.5
			c24.8,0,44.9,20.1,44.9,44.9S114.1,105.6,89.3,105.6"/>
	</g>
</g>
</svg>
